# AST/ASF file generated using VICON BodyLanguage
# -----------------------------------------------
:version 1.10
:name VICON
:units
  mass 1.0
  length 0.45
  angle deg
:documentation
   .ast/.asf automatically generated from VICON data using
   VICON BodyBuilder and BodyLanguage model FoxedUp or BRILLIANT.MOD
:root
   order TX TY TZ RX RY RZ
   axis XYZ
   position 0 0 0  
   orientation 0 0 0 
:bonedata
  begin
     id 1 
     name lhipjoint
     direction 0.643824 -0.71708 0.266994 
     length 2.52133 
     axis 0 0 0  XYZ
  end
  begin
     id 2 
     name lfemur
     direction 0.34202 -0.939693 0  
     length 7.51824  
     axis 0 0 20  XYZ
    dof rx ry rz
    limits (-160.0 20.0)
           (-70.0 70.0)
           (-60.0 70.0)
  end
  begin
     id 3 
     name ltibia
     direction 0.34202 -0.939693 0   
     length 7.3685   
     axis 0 0 20   XYZ
    dof rx
    limits (-10.0 170.0)
  end
  begin
     id 4 
     name lfoot
     direction 0.105419 -0.289636 0.951314   
     length 2.20972   
     axis -90 7.62852e-016 20   XYZ
    dof rx rz
    limits (-45.0 90.0)
           (-70.0 20.0)
  end
  begin
     id 5 
     name ltoes
     direction 1.53549e-011 -4.21833e-011 1   
     length 1.10139   
     axis -90 7.62852e-016 20   XYZ
    dof rx
    limits (-90.0 20.0)
  end
  begin
     id 6 
     name rhipjoint
     direction -0.608823 -0.743445 0.276811   
     length 2.43192  
     axis 0 0 0  XYZ 
  end
  begin
     id 7 
     name rfemur
     direction -0.34202 -0.939693 0   
     length 7.69715   
     axis 0 0 -20   XYZ
    dof rx ry rz
    limits (-160.0 20.0)
           (-70.0 70.0)
           (-70.0 60.0)
  end
  begin
     id 8 
     name rtibia
     direction -0.34202 -0.939693 0   
     length 7.44924   
     axis 0 0 -20   XYZ
    dof rx
    limits (-10.0 170.0)
 end
 begin
     id 9 
     name rfoot
     direction -0.103614 -0.284677 0.953007   
     length 2.22623  
     axis -90 -7.62852e-016 -20   XYZ
    dof rx rz
    limits (-45.0 90.0)
           (-20.0 70.0)
  end
  begin
     id 10 
     name rtoes
     direction -1.53537e-011 -4.22026e-011 1   
     length 1.11   
     axis -90 -7.62852e-016 -20   XYZ
    dof rx
    limits (-90.0 20.0)
  end
  begin
     id 11 
     name lowerback
     direction -0.0101212 0.99662 -0.0815298   
     length 2.08277   
     axis 0 0 0   XYZ
    dof rx ry rz
    limits (-20.0 45.0)
           (-30.0 30.0)
           (-30.0 30.0)
  end
  begin
     id 12 
     name upperback
     direction 0.024314 0.999591 -0.0150645   
     length 2.08524   
     axis 0 0 0   XYZ
    dof rx ry rz
    limits (-20.0 45.0)
           (-30.0 30.0)
           (-30.0 30.0)
  end
  begin
     id 13 
     name thorax
     direction 0.0285959 0.999323 0.0231357   
     length 2.09645   
     axis 0 0 0   XYZ
    dof rx ry rz
    limits (-20.0 45.0)
           (-30.0 30.0)
           (-30.0 30.0)
  end
  begin
     id 14 
     name lowerneck
     direction -0.065512 0.979301 0.191515   
     length 1.63798   
     axis 0 0 0   XYZ
    dof rx ry rz
    limits (-20.0 45.0)
           (-30.0 30.0)
           (-30.0 30.0)
  end
  begin
     id 15 
     name upperneck
     direction 0.0498479 0.98191 -0.182667   
     length 1.68731   
     axis 0 0 0   XYZ
    dof rx ry rz
    limits (-20.0 45.0)
           (-30.0 30.0)
           (-30.0 30.0)
  end
  begin
     id 16
     name head
     direction 0.0230358 0.996257 -0.0833175  
     length 1.69785  
     axis 0 0 0   XYZ
    dof rx ry rz
    limits (-20.0 45.0)
           (-30.0 30.0)
           (-30.0 30.0)
  end
  begin
     id 17 
     name lclavicle
     direction 0.967963 0.201165 -0.150269  
     length 3.63976  
     axis 0 0 0   XYZ
    dof ry rz
    limits (-20.0 10.0)
           (0.0 20.0)
  end
  begin
     id 18 
     name lhumerus
     direction 1 -4.48954e-011 -2.92837e-028   
     length 5.32462   
     axis 180 -30 -90   XYZ
    dof rx ry rz
    limits (-60.0 90.0)
           (-90.0 90.0)
           (-90.0 90.0)
  end
  begin
     id 19
     name lradius
     direction 1 -4.48958e-011 -6.39511e-027   
     length 3.48402   
     axis 180 -30 -90   XYZ
    dof rx
    limits (-10.0 170.0)
  end
  begin
     id 20
     name lwrist
     direction 1 -4.48975e-011 -1.1413e-026   
     length 1.74201   
     axis 6.88575e-015 90 90   XYZ
    dof ry
    limits (-180.0 0.0)
 end
  begin
     id 21 
     name lhand
     direction 1 -4.48899e-011 -2.28192e-026   
     length 0.572476   
     axis 1.45643e-014 90 90   XYZ
    dof rx rz
    limits (-90.0 90.0)
           (-45.0 45.0)
  end
  begin
     id 22 
     name lfingers
     direction 1 -4.49155e-011 -4.5684e-026   
     length 0.461545   
     axis 2.91283e-014 90 90   XYZ
    dof rx
    limits (0.0 90.0)
  end
  begin
     id 23
     name lthumb
     direction 0.707107 -6.34943e-011 0.707107   
     length 0.662688   
     axis -90 45 -2.25915e-014   XYZ
    dof rx rz
    limits (-45.0 45.0)
           (-45.0 45.0)
  end
  begin
     id 24 
     name rclavicle
     direction -0.964103 0.264019 -0.0282629   
     length 3.54491  
     axis 0 0 0   XYZ 
    dof ry rz
    limits (-10.0 20.0)
           (-20.0 0.0)
  end
  begin
     id 25 
     name rhumerus
     direction -1 -4.48964e-011 -2.45032e-027  
     length 5.33589   
     axis 180 30 90   XYZ
    dof rx ry rz
    limits (-90.0 60.0)
           (-90.0 90.0)
           (-90.0 90.0)
  end
  begin
     id 26 
     name rradius
     direction -1 -4.48987e-011 -1.55093e-027   
     length 3.64134   
     axis 180 30 90   XYZ
    dof rx
    limits (-10.0 170.0)
  end
  begin
     id 27 
     name rwrist
     direction -1 -4.4897e-011 -1.14128e-026   
     length 1.82067   
     axis 6.88575e-015 -90 -90   XYZ
    dof ry
    limits (-180.0 0.0)
  end
  begin
     id 28
     name rhand
     direction -1 -4.49021e-011 -2.28301e-026   
     length 0.734811   
     axis 1.45643e-014 -90 -90   XYZ
    dof rx rz
    limits (-90.0 90.0)
           (-45.0 45.0)
  end
  begin
     id 29
     name rfingers
     direction -1 -4.48862e-011 -4.56319e-026   
     length 0.592424   
     axis 2.91283e-014 -90 -90   XYZ
    dof rx
    limits (0.0 90.0)
  end
  begin
     id 30
     name rthumb
     direction -0.707107 -6.34978e-011 0.707107   
     length 0.850605   
     axis -90 -45 2.25915e-014   XYZ
    dof rx rz
    limits (-45.0 45.0)
           (-45.0 45.0)
  end
:hierarchy
  begin
    root lhipjoint rhipjoint lowerback
    lhipjoint lfemur
    lfemur ltibia
    ltibia lfoot
    lfoot ltoes
    rhipjoint rfemur
    rfemur rtibia
    rtibia rfoot
    rfoot rtoes
    lowerback upperback
    upperback thorax
    thorax lowerneck lclavicle rclavicle
    lowerneck upperneck
    upperneck head
    lclavicle lhumerus
    lhumerus lradius
    lradius lwrist
    lwrist lhand lthumb
    lhand lfingers
    rclavicle rhumerus
    rhumerus rradius
    rradius rwrist
    rwrist rhand rthumb
    rhand rfingers
  end

#!OML:ASF F:\VICON\USERDATA\INSTALL\rory3\rory3.ASF
:FULLY-SPECIFIED
:DEGREES
436
root -0.792065 17.0876 -2.52389 0.846501 5.12724 1.86831
lowerback 9.0486 -0.57131 -2.54214
upperback 1.10964 -0.942711 1.56395
thorax -3.85354 -0.418881 3.17267
lowerneck -24.9965 -2.68334 -10.9828
upperneck 20.4022 -1.44634 7.06103
head 10.8371 -0.633196 4.15916
rclavicle 1.03368e-014 2.38542e-015
rhumerus -41.4034 -20.7548 -51.0058
rradius 58.8854
rwrist 4.05999
rhand -29.8827 -1.26943
rfingers 7.12502
rthumb -3.20422 -31.2251
lclavicle 1.03368e-014 2.38542e-015
lhumerus -39.3451 21.8833 72.7315
lradius 52.4139
lwrist 18.0801
lhand -21.312 30.2392
lfingers 7.12502
lthumb 5.07311 60.1585
rfemur -16.6754 -0.633815 16.63
rtibia 47.4133
rfoot -25.7064 3.23435
rtoes -4.41085
lfemur -15.941 8.19871 -20.4343
ltibia 42.8514
lfoot -23.9151 -2.54075
ltoes -18.0896
437
root -0.779929 17.135 -2.52278 0.911582 5.17919 1.93926
lowerback 8.8153 -0.531734 -2.45054
upperback 1.12718 -0.877684 1.53623
thorax -3.71172 -0.390919 3.07941
lowerneck -25.0861 -2.72171 -10.9855
upperneck 20.5507 -1.45769 6.92986
head 10.909 -0.657285 4.11358
rclavicle -3.18055e-015 -1.19271e-014
rhumerus -41.7126 -20.8158 -51.8831
rradius 58.7381
rwrist 4.05358
rhand -29.8799 -1.50919
rfingers 7.12502
rthumb -3.20145 -31.4649
lclavicle -3.18055e-015 -1.19271e-014
lhumerus -39.3181 21.44 73.8719
lradius 51.8133
lwrist 17.3513
lhand -21.3435 31.6849
lfingers 7.12502
lthumb 5.04266 61.6049
rfemur -16.3333 -0.478336 16.5143
rtibia 46.7153
rfoot -25.4697 3.01075
rtoes -3.5287
lfemur -15.6636 7.92785 -20.5808
ltibia 42.199
lfoot -23.5481 -2.51689
ltoes -17.8122
438
root -0.763993 17.1765 -2.52267 0.988016 5.16944 1.9324
lowerback 8.63699 -0.475603 -2.27216
upperback 1.08156 -0.782145 1.556
thorax -3.6686 -0.346104 2.98543
lowerneck -25.1959 -2.75706 -11.0323
upperneck 20.7655 -1.45371 6.82459
head 11.0086 -0.676013 4.08946
rclavicle -1.92821e-014 1.27222e-014
rhumerus -42.1357 -20.7444 -52.6084
rradius 58.7606
rwrist 4.0706
rhand -29.9559 -1.7026
rfingers 7.12502
rthumb -3.27487 -31.6572
lclavicle -1.92821e-014 1.27222e-014
lhumerus -39.3288 20.9571 75.0226
lradius 51.257
lwrist 16.9044
lhand -21.1931 31.1693
lfingers 7.12502
lthumb 5.18786 61.0858
rfemur -16.0498 -0.361442 16.4672
rtibia 45.9954
rfoot -25.1648 2.79277
rtoes -3.49479
lfemur -15.3364 7.63793 -20.6578
ltibia 41.4793
lfoot -23.2182 -2.31534
ltoes -17.7143
439
root -0.746372 17.2141 -2.52327 1.20566 5.1468 1.86326
lowerback 8.34501 -0.426403 -2.06215
upperback 0.932229 -0.689544 1.63489
thorax -3.66861 -0.300993 2.93526
lowerneck -25.118 -2.77241 -11.0766
upperneck 20.9839 -1.41816 6.6195
head 11.072 -0.695882 4.03092
rclavicle 3.08116e-015 -3.18055e-015
rhumerus -42.5758 -20.5457 -53.1979
rradius 58.8014
rwrist 4.26989
rhand -30.1313 -1.67759
rfingers 7.12502
rthumb -3.44429 -31.6295
lclavicle 3.08116e-015 -3.18055e-015
lhumerus -39.5749 20.448 76.0618
lradius 51.0106
lwrist 16.4299
lhand -19.9384 29.0523
lfingers 7.12502
lthumb 6.39926 58.9357
rfemur -15.9422 -0.222708 16.4752
rtibia 45.2794
rfoot -24.8067 2.77503
rtoes -3.27096
lfemur -15.1518 7.32047 -20.6965
ltibia 40.7085
lfoot -22.8732 -1.99238
ltoes -17.2006
